<mxfile host="app.diagrams.net" agent="Mozilla/5.0 (Macintosh; Intel Mac OS X 10_15_7) AppleWebKit/537.36 (KHTML, like Gecko) Chrome/135.0.0.0 Safari/537.36" version="26.2.8">
  <diagram name="Page-1" id="mJ3UVpmQZkZTScgPRwcZ">
    <mxGraphModel dx="1188" dy="701" grid="1" gridSize="10" guides="1" tooltips="1" connect="1" arrows="1" fold="1" page="1" pageScale="1" pageWidth="850" pageHeight="1100" math="0" shadow="0">
      <root>
        <mxCell id="0" />
        <mxCell id="1" parent="0" />
        <mxCell id="ZRFezeCXcrxxIDTXpZLv-1" value="User Interface (Flutter Mobile)" style="whiteSpace=wrap;strokeWidth=2;" vertex="1" parent="1">
          <mxGeometry x="312" y="974" width="260" height="78" as="geometry" />
        </mxCell>
        <mxCell id="ZRFezeCXcrxxIDTXpZLv-2" value="Voice Input / Recorder" style="whiteSpace=wrap;strokeWidth=2;" vertex="1" parent="1">
          <mxGeometry x="197" y="870" width="222" height="54" as="geometry" />
        </mxCell>
        <mxCell id="ZRFezeCXcrxxIDTXpZLv-3" value="Music Theory Lessons" style="whiteSpace=wrap;strokeWidth=2;" vertex="1" parent="1">
          <mxGeometry x="469" y="870" width="211" height="54" as="geometry" />
        </mxCell>
        <mxCell id="ZRFezeCXcrxxIDTXpZLv-4" value="Chat Interface" style="whiteSpace=wrap;strokeWidth=2;" vertex="1" parent="1">
          <mxGeometry x="629" y="1462" width="163" height="54" as="geometry" />
        </mxCell>
        <mxCell id="ZRFezeCXcrxxIDTXpZLv-5" value="RESTful API (Node.js + Express)" style="whiteSpace=wrap;strokeWidth=2;" vertex="1" parent="1">
          <mxGeometry x="312" y="1102" width="260" height="78" as="geometry" />
        </mxCell>
        <mxCell id="ZRFezeCXcrxxIDTXpZLv-6" value="Business Logic Controller" style="whiteSpace=wrap;strokeWidth=2;" vertex="1" parent="1">
          <mxGeometry x="182" y="1230" width="239" height="54" as="geometry" />
        </mxCell>
        <mxCell id="ZRFezeCXcrxxIDTXpZLv-7" value="Authentication Module" style="whiteSpace=wrap;strokeWidth=2;" vertex="1" parent="1">
          <mxGeometry x="520" y="1210" width="222" height="54" as="geometry" />
        </mxCell>
        <mxCell id="ZRFezeCXcrxxIDTXpZLv-8" value="AI Music Generator (OpenAI / TensorFlow)" style="whiteSpace=wrap;strokeWidth=2;" vertex="1" parent="1">
          <mxGeometry x="20" y="1334" width="260" height="78" as="geometry" />
        </mxCell>
        <mxCell id="ZRFezeCXcrxxIDTXpZLv-9" value="MongoDB (Database)" style="whiteSpace=wrap;strokeWidth=2;" vertex="1" parent="1">
          <mxGeometry x="343" y="1412" width="206" height="54" as="geometry" />
        </mxCell>
        <mxCell id="ZRFezeCXcrxxIDTXpZLv-10" value="Firebase Realtime DB" style="whiteSpace=wrap;strokeWidth=2;" vertex="1" parent="1">
          <mxGeometry x="605" y="1346" width="212" height="54" as="geometry" />
        </mxCell>
        <mxCell id="ZRFezeCXcrxxIDTXpZLv-11" value="" style="curved=1;startArrow=none;endArrow=block;exitX=0.5;exitY=1;entryX=0.5;entryY=0;rounded=0;" edge="1" parent="1" source="ZRFezeCXcrxxIDTXpZLv-1" target="ZRFezeCXcrxxIDTXpZLv-5">
          <mxGeometry relative="1" as="geometry">
            <Array as="points" />
          </mxGeometry>
        </mxCell>
        <mxCell id="ZRFezeCXcrxxIDTXpZLv-12" value="" style="startArrow=none;endArrow=block;exitX=0.5;exitY=1;entryX=0.19;entryY=0;rounded=0;edgeStyle=orthogonalEdgeStyle;" edge="1" parent="1" source="ZRFezeCXcrxxIDTXpZLv-2" target="ZRFezeCXcrxxIDTXpZLv-1">
          <mxGeometry relative="1" as="geometry" />
        </mxCell>
        <mxCell id="ZRFezeCXcrxxIDTXpZLv-13" value="" style="startArrow=none;endArrow=block;exitX=0.5;exitY=1;entryX=0.81;entryY=0;rounded=0;edgeStyle=orthogonalEdgeStyle;" edge="1" parent="1" source="ZRFezeCXcrxxIDTXpZLv-3" target="ZRFezeCXcrxxIDTXpZLv-1">
          <mxGeometry relative="1" as="geometry" />
        </mxCell>
        <mxCell id="ZRFezeCXcrxxIDTXpZLv-14" value="" style="startArrow=none;endArrow=block;exitX=0.53;exitY=0;entryX=0.52;entryY=1;rounded=0;edgeStyle=orthogonalEdgeStyle;" edge="1" parent="1" source="ZRFezeCXcrxxIDTXpZLv-4" target="ZRFezeCXcrxxIDTXpZLv-10">
          <mxGeometry relative="1" as="geometry" />
        </mxCell>
        <mxCell id="ZRFezeCXcrxxIDTXpZLv-15" value="" style="startArrow=none;endArrow=block;exitX=0.17;exitY=1;entryX=0.5;entryY=0;rounded=0;edgeStyle=orthogonalEdgeStyle;" edge="1" parent="1" source="ZRFezeCXcrxxIDTXpZLv-5" target="ZRFezeCXcrxxIDTXpZLv-6">
          <mxGeometry relative="1" as="geometry" />
        </mxCell>
        <mxCell id="ZRFezeCXcrxxIDTXpZLv-16" value="" style="startArrow=none;endArrow=block;exitX=0.83;exitY=1;entryX=0.5;entryY=0;rounded=0;edgeStyle=orthogonalEdgeStyle;" edge="1" parent="1" source="ZRFezeCXcrxxIDTXpZLv-5" target="ZRFezeCXcrxxIDTXpZLv-7">
          <mxGeometry relative="1" as="geometry" />
        </mxCell>
        <mxCell id="ZRFezeCXcrxxIDTXpZLv-17" value="" style="startArrow=none;endArrow=block;exitX=0.48;exitY=1;entryX=0.19;entryY=0;rounded=0;edgeStyle=orthogonalEdgeStyle;" edge="1" parent="1" source="ZRFezeCXcrxxIDTXpZLv-6" target="ZRFezeCXcrxxIDTXpZLv-9">
          <mxGeometry relative="1" as="geometry" />
        </mxCell>
        <mxCell id="ZRFezeCXcrxxIDTXpZLv-18" value="" style="startArrow=none;endArrow=block;exitX=0.17;exitY=1;entryX=0.5;entryY=0;rounded=0;edgeStyle=orthogonalEdgeStyle;" edge="1" parent="1" source="ZRFezeCXcrxxIDTXpZLv-6" target="ZRFezeCXcrxxIDTXpZLv-8">
          <mxGeometry relative="1" as="geometry" />
        </mxCell>
        <mxCell id="ZRFezeCXcrxxIDTXpZLv-19" value="" style="startArrow=none;endArrow=block;exitX=0.17;exitY=1;entryX=0.5;entryY=0;rounded=0;edgeStyle=orthogonalEdgeStyle;" edge="1" parent="1" source="ZRFezeCXcrxxIDTXpZLv-7" target="ZRFezeCXcrxxIDTXpZLv-9">
          <mxGeometry relative="1" as="geometry" />
        </mxCell>
        <mxCell id="ZRFezeCXcrxxIDTXpZLv-20" value="" style="startArrow=none;endArrow=block;exitX=1;exitY=0.78;entryX=0.5;entryY=0;rounded=0;edgeStyle=orthogonalEdgeStyle;" edge="1" parent="1" source="ZRFezeCXcrxxIDTXpZLv-6" target="ZRFezeCXcrxxIDTXpZLv-10">
          <mxGeometry relative="1" as="geometry" />
        </mxCell>
        <mxCell id="ZRFezeCXcrxxIDTXpZLv-21" value="" style="startArrow=none;endArrow=block;exitX=0.76;exitY=0;entryX=1;entryY=0.92;rounded=0;edgeStyle=orthogonalEdgeStyle;" edge="1" parent="1" source="ZRFezeCXcrxxIDTXpZLv-9" target="ZRFezeCXcrxxIDTXpZLv-6">
          <mxGeometry relative="1" as="geometry" />
        </mxCell>
        <mxCell id="ZRFezeCXcrxxIDTXpZLv-22" value="" style="startArrow=none;endArrow=block;exitX=0.48;exitY=1;entryX=0.47;entryY=0;rounded=0;edgeStyle=orthogonalEdgeStyle;" edge="1" parent="1" source="ZRFezeCXcrxxIDTXpZLv-10" target="ZRFezeCXcrxxIDTXpZLv-4">
          <mxGeometry relative="1" as="geometry" />
        </mxCell>
      </root>
    </mxGraphModel>
  </diagram>
</mxfile>
